<svg xmlns="http://www.w3.org/2000/svg" viewBox="0 0 680 370" font-family="sans-serif">
<text x="340.0" y="24" text-anchor="middle" font-size="14" font-weight="700">Total tokens by policy arm (input-dominated)</text>
<line x1="56" y1="314" x2="624" y2="314" stroke="#999"/>
<rect x="86" y="239.63661244838352" width="24" height="74.36338755161647" fill="#bbb"/>
<text x="98.0" y="235.63661244838352" text-anchor="middle" font-size="8">95,395</text>
<rect x="113" y="233.23085104240107" width="24" height="80.76914895759894" fill="#f59e0b"/>
<text x="125.0" y="229.23085104240107" text-anchor="middle" font-size="8">103,612</text>
<rect x="140" y="233.20577600966863" width="24" height="80.79422399033136" fill="#16a34a"/>
<text x="152.0" y="229.20577600966863" text-anchor="middle" font-size="8">103,644</text>
<text x="110" y="330" text-anchor="middle" font-size="11" font-weight="600">codex</text>
<rect x="236" y="56.0" width="24" height="258.0" fill="#bbb"/>
<text x="248.0" y="52.0" text-anchor="middle" font-size="8">330,967</text>
<rect x="263" y="63.327950951757515" width="24" height="250.67204904824249" fill="#f59e0b"/>
<text x="275.0" y="59.327950951757515" text-anchor="middle" font-size="8">321,566</text>
<rect x="290" y="74.7289057306879" width="24" height="239.2710942693121" fill="#16a34a"/>
<text x="302.0" y="70.7289057306879" text-anchor="middle" font-size="8">306,941</text>
<text x="260" y="330" text-anchor="middle" font-size="11" font-weight="600">cursor</text>
<rect x="386" y="262.905982979152" width="24" height="51.09401702084802" fill="#bbb"/>
<text x="398.0" y="258.905982979152" text-anchor="middle" font-size="8">65,544</text>
<rect x="413" y="254.9970837949441" width="24" height="59.0029162050559" fill="#f59e0b"/>
<text x="425.0" y="250.9970837949441" text-anchor="middle" font-size="8">75,690</text>
<rect x="440" y="252.67270621412024" width="24" height="61.327293785879746" fill="#16a34a"/>
<text x="452.0" y="248.67270621412024" text-anchor="middle" font-size="8">78,672</text>
<text x="410" y="330" text-anchor="middle" font-size="11" font-weight="600">opus</text>
<rect x="536" y="275.95571860207474" width="24" height="38.044281397925275" fill="#bbb"/>
<text x="548.0" y="271.95571860207474" text-anchor="middle" font-size="8">48,804</text>
<rect x="563" y="274.7638100513647" width="24" height="39.23618994863531" fill="#f59e0b"/>
<text x="575.0" y="270.7638100513647" text-anchor="middle" font-size="8">50,333</text>
<rect x="590" y="273.53441887400544" width="24" height="40.46558112599456" fill="#16a34a"/>
<text x="602.0" y="269.53441887400544" text-anchor="middle" font-size="8">51,910</text>
<text x="560" y="330" text-anchor="middle" font-size="11" font-weight="600">sonnet</text>
<rect x="534" y="38" width="10" height="10" fill="#bbb"/>
<text x="548" y="47" font-size="10">without</text>
<rect x="534" y="52" width="10" height="10" fill="#f59e0b"/>
<text x="548" y="61" font-size="10">full</text>
<rect x="534" y="66" width="10" height="10" fill="#16a34a"/>
<text x="548" y="75" font-size="10">min</text>
</svg>
